<svg width="1319" height="1009" viewBox="0 0 1319 1009" fill="none" xmlns="http://www.w3.org/2000/svg">
<mask id="mask0" mask-type="alpha" maskUnits="userSpaceOnUse" x="-121" y="0" width="1440" height="1237">
<path fill-rule="evenodd" clip-rule="evenodd" d="M-64 0C-95.4802 0 -121 25.5197 -121 56.9999V1179.42C-121 1210.9 -95.4802 1236.42 -64 1236.42H1006.97H1261.27H1318.27V1179.42V57V0H1261.27H1006.97H-64Z" fill="#B3B3B3"/>
</mask>
<g mask="url(#mask0)">
<mask id="mask1" mask-type="alpha" maskUnits="userSpaceOnUse" x="-147" y="-60" width="1440" height="877">
<rect x="-146.356" y="-59.1645" width="1439.27" height="875.393" fill="#C4C4C4"/>
</mask>
<g mask="url(#mask1)">
</g>
<g opacity="0.5">
<g clip-path="url(#clip0)">
<path d="M972.95 595.188C969.369 595.183 965.833 596 962.616 597.575C959.342 591.909 954.637 587.203 948.972 583.932C943.307 580.66 936.882 578.937 930.342 578.935C927.717 578.94 925.099 579.215 922.529 579.753C916.638 574.447 909.629 570.536 902.022 568.309C894.415 566.083 886.405 565.598 878.585 566.89C870.766 568.182 863.337 571.219 856.849 575.775C850.361 580.332 844.981 586.291 841.106 593.211C838.884 592.619 836.593 592.321 834.293 592.324C827.215 592.324 820.427 595.138 815.422 600.147C810.418 605.156 807.606 611.95 807.606 619.034H996.684C996.684 612.725 994.187 606.674 989.738 602.205C985.29 597.735 979.253 595.212 972.95 595.188Z" fill="#FEFEFE"/>
<path d="M963.865 597.461C960.284 597.456 956.748 598.273 953.531 599.848C950.257 594.182 945.552 589.477 939.887 586.205C934.222 582.933 927.798 581.21 921.257 581.208C918.632 581.214 916.014 581.488 913.444 582.027C907.553 576.721 900.544 572.809 892.937 570.583C885.33 568.356 877.32 567.871 869.501 569.163C861.681 570.455 854.252 573.492 847.764 578.049C841.276 582.605 835.896 588.564 832.022 595.484C829.799 594.892 827.508 594.594 825.208 594.597C818.13 594.597 811.342 597.411 806.338 602.42C801.333 607.429 798.521 614.223 798.521 621.307H987.599C987.599 614.999 985.102 608.947 980.653 604.478C976.205 600.008 970.168 597.486 963.865 597.461V597.461Z" stroke="#FF6E40" stroke-linecap="round" stroke-linejoin="round"/>
<path d="M938.133 595.916C941.197 598.215 943.768 601.106 945.696 604.417L949.92 611.692L957.506 608.032C960.526 606.563 963.959 606.176 967.229 606.938C970.499 607.699 973.409 609.562 975.471 612.214" stroke="#FF6E40" stroke-linecap="round" stroke-linejoin="round"/>
<path d="M932.341 592.597C934.396 593.469 936.341 594.583 938.133 595.916" stroke="#FF6E40" stroke-linecap="round" stroke-linejoin="round"/>
<path d="M921.28 590.301C925.084 590.291 928.849 591.065 932.341 592.574" stroke="#FF6E40" stroke-linecap="round" stroke-linejoin="round"/>
<path d="M878.127 577.571C888.931 577.56 899.355 581.562 907.38 588.801L909.493 590.733" stroke="#FF6E40" stroke-linecap="round" stroke-linejoin="round"/>
<path d="M817.281 397.99C832.589 382.077 851.577 370.439 869.837 358.141C906.358 333.522 942.834 302.857 954.417 260.394C959.255 242.686 957.256 219.909 941.062 211.316C921.78 201.109 893.367 221.591 896.411 243.141C897.864 253.825 905.677 262.895 915.103 268.146C924.528 273.397 935.543 275.329 946.173 276.284C1066.55 287.127 1270.48 142.37 1264.8 5.88864" stroke="#FF6E40" stroke-width="2" stroke-miterlimit="10" stroke-dasharray="9 5"/>
<path d="M718.484 67.9693L725.229 88.7461H747.033L729.408 101.567L736.131 122.344L718.484 109.5L700.836 122.344L707.582 101.567L689.935 88.7461H711.761L718.484 67.9693Z" fill="#FEFEFE"/>
<path d="M711.67 65.6961L718.416 86.473H740.219L722.595 99.2937L729.318 120.071L711.67 107.227L694.023 120.071L700.768 99.2937L683.121 86.473H704.947L711.67 65.6961Z" stroke="#FF6E40" stroke-linecap="round" stroke-linejoin="round"/>
<path d="M793.82 66.8327L800.565 87.6095H822.369L804.722 100.43L811.467 121.207L793.82 108.364L776.173 121.207L782.918 100.43L765.271 87.6095H787.074L793.82 66.8327Z" fill="#FEFEFE"/>
<path d="M787.006 64.5594L793.752 85.3363H815.555L797.908 98.1571L804.653 118.934L787.006 106.09L769.359 118.934L776.104 98.1571L758.457 85.3363H780.261L787.006 64.5594Z" stroke="#FF6E40" stroke-linecap="round" stroke-linejoin="round"/>
<path d="M869.156 65.6961L875.901 86.473H897.705L880.058 99.2937L886.803 120.071L869.156 107.227L851.509 120.071L858.254 99.2937L840.607 86.473H862.41L869.156 65.6961Z" fill="#FEFEFE"/>
<path d="M862.342 63.4229L869.088 84.1998H890.892L873.244 97.0205L879.99 117.797L862.342 104.954L844.695 117.797L851.44 97.0205L833.793 84.1998H855.597L862.342 63.4229Z" stroke="#FF6E40" stroke-linecap="round" stroke-linejoin="round"/>
<path d="M1259.78 814.119L1266.5 834.895H1288.33L1270.68 847.716L1277.41 868.47L1259.78 855.649L1242.13 868.47L1248.86 847.716L1231.21 834.895H1253.04L1259.78 814.119Z" fill="#FEFEFE"/>
<path d="M1252.97 811.845L1259.69 832.622H1281.52L1263.87 845.443L1270.59 866.197L1252.97 853.376L1235.32 866.197L1242.04 845.443L1224.4 832.622H1246.22L1252.97 811.845Z" stroke="#FF6E40" stroke-linecap="round" stroke-linejoin="round"/>
<path d="M1335.09 812.982L1341.84 833.759H1363.64L1346 846.579L1352.74 867.334L1335.09 854.513L1317.45 867.334L1324.19 846.579L1306.55 833.759H1328.37L1335.09 812.982Z" fill="#FEFEFE"/>
<path d="M1328.28 810.709L1335.03 831.486H1356.83L1339.18 844.306L1345.93 865.06L1328.28 852.24L1310.63 865.06L1317.38 844.306L1299.73 831.486H1321.56L1328.28 810.709Z" stroke="#FF6E40" stroke-linecap="round" stroke-linejoin="round"/>
<path d="M274.871 746.923L281.594 767.677H303.42L285.773 780.521L292.518 801.275L274.871 788.454L257.224 801.275L263.969 780.521L246.299 767.677H268.126L274.871 746.923Z" fill="#FEFEFE"/>
<path d="M268.057 744.65L274.78 765.404H296.607L278.959 778.248L285.705 799.002L268.057 786.181L250.41 799.002L257.156 778.248L239.486 765.404H261.312L268.057 744.65Z" stroke="#FF6E40" stroke-linecap="round" stroke-linejoin="round"/>
<path d="M102.736 911.82L109.459 932.597H131.285L113.638 945.418L120.383 966.194L102.736 953.351L85.0887 966.194L91.8342 945.418L74.1869 932.597H95.9905L102.736 911.82Z" fill="#FEFEFE"/>
<path d="M95.9224 909.547L102.645 930.323H124.472L106.824 943.144L113.57 963.921L95.9224 951.078L78.2751 963.921L85.0206 943.144L67.3733 930.323H89.1769L95.9224 909.547Z" stroke="#FF6E40" stroke-linecap="round" stroke-linejoin="round"/>
<path d="M1093.85 560.931L1100.59 581.708H1122.4L1104.75 594.529L1111.49 615.283L1093.85 602.462L1076.2 615.283L1082.94 594.529L1065.3 581.708H1087.12L1093.85 560.931Z" fill="#FEFEFE"/>
<path d="M1087.03 558.658L1093.78 579.435H1115.58L1097.93 592.256L1104.68 613.01L1087.03 600.189L1069.39 613.01L1076.13 592.256L1058.48 579.435H1080.31L1087.03 558.658Z" stroke="#FF6E40" stroke-linecap="round" stroke-linejoin="round"/>
<path d="M1162.96 59.4448L1169.71 80.199H1191.51L1173.86 93.0424L1180.61 113.797L1162.96 100.976L1145.31 113.797L1152.06 93.0424L1134.41 80.199H1156.21L1162.96 59.4448Z" fill="#FEFEFE"/>
<path d="M1156.15 57.1716L1162.89 77.9258H1184.7L1167.05 90.7692L1173.79 111.523L1156.15 98.7027L1138.5 111.523L1145.24 90.7692L1127.6 77.9258H1149.4L1156.15 57.1716Z" stroke="#FF6E40" stroke-linecap="round" stroke-linejoin="round"/>
<path d="M941.517 771.474L948.262 792.228H970.066L952.419 805.048L959.164 825.825L941.517 812.982L923.869 825.825L930.615 805.048L912.968 792.228H934.771L941.517 771.474Z" fill="#FEFEFE"/>
<path d="M934.703 769.2L941.449 789.954H963.252L945.605 802.775L952.35 823.552L934.703 810.709L917.056 823.552L923.801 802.775L906.154 789.954H927.958L934.703 769.2Z" stroke="#FF6E40" stroke-linecap="round" stroke-linejoin="round"/>
<path d="M1107.56 67.2418H962.639V173.74H1107.56V67.2418Z" fill="#FEFEFE"/>
<path d="M1096.21 62.6954H951.283V169.194H1096.21V62.6954Z" stroke="#FF6E40" stroke-miterlimit="10"/>
<path d="M951.305 62.6954C951.305 62.6954 1023.55 118.047 1023.76 115.956C1023.96 113.865 1096.23 62.6954 1096.23 62.6954H951.305Z" stroke="#FF6E40" stroke-linecap="round" stroke-linejoin="round"/>
<path d="M970.497 132.869H1007.61" stroke="#FF6E40" stroke-linecap="round" stroke-linejoin="round"/>
<path d="M970.497 142.348H1007.61" stroke="#FF6E40" stroke-linecap="round" stroke-linejoin="round"/>
<path d="M970.497 151.827H1007.61" stroke="#FF6E40" stroke-linecap="round" stroke-linejoin="round"/>
<path d="M1085.01 86.2684V127.481" stroke="#FF6E40" stroke-linecap="round" stroke-linejoin="round"/>
<path d="M1085.01 132.869V145.098" stroke="#FF6E40" stroke-linecap="round" stroke-linejoin="round"/>
<path d="M1085.01 151.827V157.033" stroke="#FF6E40" stroke-linecap="round" stroke-linejoin="round"/>
<path d="M62.4447 309.313H-82.4812V415.811H62.4447V309.313Z" fill="#FEFEFE"/>
<path d="M51.0888 304.767H-93.8372V411.265H51.0888V304.767Z" stroke="#FF6E40" stroke-miterlimit="10"/>
<path d="M-93.8145 304.789C-93.8145 304.789 -21.5672 360.141 -21.3628 358.05C-21.1584 355.959 51.1115 304.789 51.1115 304.789H-93.8145Z" stroke="#FF6E40" stroke-linecap="round" stroke-linejoin="round"/>
<path d="M39.8915 328.34V369.552" stroke="#FF6E40" stroke-linecap="round" stroke-linejoin="round"/>
<path d="M39.8915 374.94V387.169" stroke="#FF6E40" stroke-linecap="round" stroke-linejoin="round"/>
<path d="M39.8915 393.898V399.104" stroke="#FF6E40" stroke-linecap="round" stroke-linejoin="round"/>
<path d="M1343.04 662.088H1198.12V768.587H1343.04V662.088Z" fill="#FEFEFE"/>
<path d="M1331.69 657.542H1186.76V764.04H1331.69V657.542Z" stroke="#FF6E40" stroke-miterlimit="10"/>
<path d="M1186.78 657.542C1186.78 657.542 1259.03 712.916 1259.24 710.802C1259.44 708.688 1331.8 657.542 1331.8 657.542H1186.78Z" stroke="#FF6E40" stroke-linecap="round" stroke-linejoin="round"/>
<path d="M1205.98 727.738H1243.07" stroke="#FF6E40" stroke-linecap="round" stroke-linejoin="round"/>
<path d="M1205.98 737.217H1243.07" stroke="#FF6E40" stroke-linecap="round" stroke-linejoin="round"/>
<path d="M1205.98 746.673H1243.07" stroke="#FF6E40" stroke-linecap="round" stroke-linejoin="round"/>
<path d="M822.142 283.99L801.36 285.49L789.686 302.743L771.994 272.056C775.786 274.329 779.943 278.875 783.077 277.784C787.301 276.42 787.165 266.418 790.708 263.804C794.251 261.19 803.745 264.418 806.334 260.849C806.934 259.887 807.152 258.736 806.947 257.621L822.142 283.99Z" fill="#FEFEFE"/>
<path d="M765.361 272.056L747.669 302.744L735.995 285.49L715.213 283.99L730.385 257.666C730.192 258.767 730.41 259.899 730.998 260.849C733.61 264.418 743.081 261.213 746.647 263.804C750.213 266.395 750.053 276.42 754.278 277.784C757.412 278.807 761.569 274.238 765.361 272.056Z" fill="#FEFEFE"/>
<path d="M815.237 233.457C815.237 238.003 805.653 240.958 804.336 245.05C803.018 249.142 808.878 257.325 806.357 260.962C803.836 264.599 794.274 261.303 790.708 263.895C787.143 266.486 787.324 276.511 783.077 277.897C778.83 279.284 773.22 271.078 768.678 271.078C764.135 271.078 758.389 279.239 754.301 277.897C750.213 276.556 750.19 266.532 746.647 263.917C743.104 261.303 733.61 264.531 731.021 260.985C728.432 257.439 734.405 249.415 733.042 245.073C731.68 240.731 722.118 238.026 722.118 233.48C722.118 228.933 731.702 225.978 733.042 221.886C734.382 217.795 728.5 209.634 731.021 205.974C733.542 202.314 743.104 205.61 746.647 203.019C750.19 200.428 750.054 190.426 754.301 189.039C758.548 187.652 764.158 195.858 768.678 195.858C773.197 195.858 778.989 187.72 783.077 189.039C787.165 190.357 787.188 200.405 790.708 203.019C794.229 205.633 803.768 202.405 806.357 205.974C808.946 209.543 802.95 217.545 804.336 221.886C805.721 226.228 815.237 228.933 815.237 233.457Z" fill="#FEFEFE"/>
<path d="M815.328 283.99L794.547 285.49L782.873 302.744L765.18 272.056C768.973 274.329 773.129 278.875 776.263 277.784C780.488 276.42 780.352 266.418 783.895 263.804C787.438 261.19 796.931 264.418 799.521 260.849C800.12 259.887 800.339 258.736 800.134 257.621L815.328 283.99Z" stroke="#FF6E40" stroke-linecap="round" stroke-linejoin="round"/>
<path d="M758.548 272.056L740.855 302.744L729.181 285.49L708.4 283.99L723.571 257.666C723.378 258.767 723.596 259.899 724.184 260.849C726.796 264.418 736.267 261.213 739.833 263.804C743.399 266.395 743.24 276.42 747.464 277.784C750.599 278.807 754.755 274.238 758.548 272.056Z" stroke="#FF6E40" stroke-linecap="round" stroke-linejoin="round"/>
<path d="M808.424 233.457C808.424 238.003 798.839 240.958 797.522 245.05C796.205 249.142 802.064 257.325 799.543 260.962C797.022 264.599 787.46 261.303 783.895 263.895C780.329 266.486 780.511 276.511 776.263 277.897C772.016 279.284 766.406 271.078 761.864 271.078C757.321 271.078 751.575 279.239 747.487 277.897C743.399 276.556 743.376 266.532 739.833 263.917C736.29 261.303 726.796 264.531 724.207 260.985C721.618 257.439 727.591 249.415 726.229 245.073C724.866 240.731 715.304 238.026 715.304 233.48C715.304 228.933 724.889 225.978 726.229 221.886C727.569 217.795 721.686 209.634 724.207 205.974C726.728 202.314 736.29 205.61 739.833 203.019C743.376 200.428 743.24 190.426 747.487 189.039C751.734 187.652 757.344 195.858 761.864 195.858C766.384 195.858 772.175 187.72 776.263 189.039C780.352 190.357 780.374 200.405 783.895 203.019C787.415 205.633 796.954 202.405 799.543 205.974C802.133 209.543 796.136 217.545 797.522 221.886C798.907 226.228 808.424 228.933 808.424 233.457Z" stroke="#FF6E40" stroke-linecap="round" stroke-linejoin="round"/>
<path d="M779.95 256.344C792.599 246.324 794.737 227.939 784.727 215.279C774.716 202.619 756.347 200.479 743.698 210.499C731.049 220.518 728.911 238.904 738.922 251.563C748.932 264.223 767.302 266.363 779.95 256.344Z" fill="#F9F8EB" stroke="#FF6E40" stroke-linecap="round" stroke-linejoin="round"/>
<path d="M785.121 236.844C784.921 238.225 784.602 239.587 784.167 240.913L785.121 236.844Z" fill="#F9F8EB"/>
<path d="M785.121 236.844C784.921 238.225 784.602 239.587 784.167 240.913" stroke="#FF6E40" stroke-linecap="round" stroke-linejoin="round"/>
<path d="M783.804 225.046C784.619 227.15 785.117 229.365 785.28 231.616L783.804 225.046Z" fill="#F9F8EB"/>
<path d="M783.804 225.046C784.619 227.15 785.117 229.365 785.28 231.616" stroke="#FF6E40" stroke-linecap="round" stroke-linejoin="round"/>
<path d="M761.864 209.952C765.528 209.948 769.141 210.803 772.415 212.449C775.689 214.095 778.532 216.487 780.715 219.431" fill="#F9F8EB"/>
<path d="M761.864 209.952C765.528 209.948 769.141 210.803 772.415 212.449C775.689 214.095 778.532 216.487 780.715 219.431" stroke="#FF6E40" stroke-linecap="round" stroke-linejoin="round"/>
<path d="M359.587 483.53C356.007 483.54 352.476 484.356 349.253 485.916C345.974 480.256 341.267 475.556 335.603 472.289C329.939 469.022 323.517 467.301 316.979 467.299C314.354 467.304 311.736 467.579 309.166 468.117C303.277 462.812 296.27 458.9 288.665 456.674C281.059 454.447 273.051 453.962 265.233 455.254C257.415 456.547 249.988 459.584 243.502 464.14C237.016 468.696 231.638 474.655 227.766 481.575C225.543 480.984 223.253 480.685 220.953 480.688C213.879 480.688 207.094 483.499 202.09 488.503C197.086 493.507 194.272 500.295 194.266 507.375H383.344C383.344 501.063 380.843 495.008 376.39 490.538C371.937 486.068 365.894 483.548 359.587 483.53Z" fill="#FEFEFE"/>
<path d="M350.502 485.803C346.922 485.814 343.391 486.629 340.168 488.19C336.89 482.529 332.182 477.829 326.518 474.562C320.854 471.295 314.432 469.574 307.894 469.572C305.269 469.578 302.651 469.852 300.081 470.391C294.192 465.085 287.185 461.174 279.58 458.947C271.974 456.72 263.966 456.235 256.148 457.528C248.33 458.82 240.903 461.857 234.417 466.413C227.931 470.97 222.553 476.928 218.681 483.848C216.458 483.257 214.168 482.959 211.868 482.961C204.794 482.961 198.009 485.772 193.005 490.776C188.001 495.781 185.187 502.569 185.181 509.648H374.259C374.259 503.336 371.758 497.281 367.305 492.811C362.852 488.341 356.809 485.821 350.502 485.803V485.803Z" stroke="#FF6E40" stroke-linecap="round" stroke-linejoin="round"/>
<path d="M324.747 484.371C327.81 486.661 330.382 489.545 332.31 492.85L336.557 500.147L344.12 496.487C346.104 495.501 348.288 494.988 350.502 494.987C352.739 494.988 354.946 495.499 356.956 496.48C358.967 497.46 360.728 498.885 362.108 500.647" stroke="#FF6E40" stroke-linecap="round" stroke-linejoin="round"/>
<path d="M318.978 480.938C321.029 481.852 322.965 483.004 324.747 484.371" stroke="#FF6E40" stroke-linecap="round" stroke-linejoin="round"/>
<path d="M307.894 478.665C311.704 478.666 315.475 479.439 318.978 480.938" stroke="#FF6E40" stroke-linecap="round" stroke-linejoin="round"/>
<path d="M264.741 465.912C275.546 465.897 285.971 469.899 293.995 477.142L296.129 479.051" stroke="#FF6E40" stroke-linecap="round" stroke-linejoin="round"/>
<path d="M265.423 313.7H252.25V353.481H220.362V313.7H207.189L236.306 278.466L265.423 313.7Z" fill="#FEFEFE"/>
<path d="M258.609 313.7H245.436V353.481H213.548V313.7H200.375L229.492 278.466L258.609 313.7Z" stroke="#FF6E40" stroke-linecap="round" stroke-linejoin="round"/>
<path d="M238.963 314.678V331.886" stroke="#FF6E40" stroke-linecap="round" stroke-linejoin="round"/>
<path d="M238.963 336.228V342.001" stroke="#FF6E40" stroke-linecap="round" stroke-linejoin="round"/>
<path d="M1020.21 434.929H1007.04V474.71H975.153V434.929H961.981L991.097 399.695L1020.21 434.929Z" fill="#FEFEFE"/>
<path d="M1013.4 434.929H1000.23V474.71H968.34V434.929H955.167L984.284 399.695L1013.4 434.929Z" stroke="#FF6E40" stroke-linecap="round" stroke-linejoin="round"/>
<path d="M993.754 435.929V453.114" stroke="#FF6E40" stroke-linecap="round" stroke-linejoin="round"/>
<path d="M993.754 457.479V463.253" stroke="#FF6E40" stroke-linecap="round" stroke-linejoin="round"/>
<path d="M217.682 643.175L209.801 645.153L203.759 657.724L207.098 665.134C202.781 670.343 197.439 674.607 191.404 677.659L184.954 672.727L171.326 675.841L167.647 683.07C160.885 682.923 154.226 681.375 148.092 678.523L147.91 670.408L137.145 661.679L129.196 663.316C125.074 657.916 122.105 651.726 120.474 645.13L126.72 639.902V625.944L120.474 620.739C122.126 614.185 125.094 608.037 129.196 602.667L137.167 604.281L148.069 595.597L148.251 587.459C154.393 584.607 161.059 583.059 167.829 582.913L171.508 590.119L185.135 593.233L191.586 588.346C197.608 591.409 202.946 595.662 207.28 600.849L203.918 608.259L209.96 620.83L217.841 622.83C219.204 629.451 219.204 636.281 217.841 642.902L217.682 643.175Z" fill="#FEFEFE"/>
<path d="M177.845 633.128C177.845 636.275 176.912 639.351 175.165 641.968C173.418 644.585 170.935 646.624 168.03 647.829C165.125 649.033 161.929 649.348 158.845 648.734C155.761 648.12 152.928 646.605 150.704 644.379C148.481 642.154 146.967 639.319 146.353 636.232C145.74 633.145 146.055 629.946 147.258 627.038C148.461 624.131 150.499 621.646 153.114 619.897C155.728 618.149 158.802 617.216 161.946 617.216C166.163 617.216 170.207 618.892 173.188 621.876C176.17 624.86 177.845 628.908 177.845 633.128Z" stroke="#FF6E40" stroke-linecap="round" stroke-linejoin="round"/>
<path d="M170.707 653.942C182.271 649.112 187.734 635.814 182.908 624.239C178.083 612.664 164.796 607.197 153.231 612.027C141.667 616.857 136.204 630.155 141.029 641.73C145.855 653.304 159.142 658.772 170.707 653.942Z" stroke="#FF6E40" stroke-linecap="round" stroke-linejoin="round"/>
<path d="M180.752 655.109C178.527 657.001 176.021 658.535 173.325 659.656" stroke="#FF6E40" stroke-linecap="round" stroke-linejoin="round"/>
<path d="M189.11 623.035C190.293 626.236 190.893 629.624 190.882 633.037C190.885 638.344 189.432 643.549 186.68 648.085" stroke="#FF6E40" stroke-linecap="round" stroke-linejoin="round"/>
<path d="M161.969 604.19C166.34 604.182 170.656 605.168 174.591 607.074C178.526 608.98 181.976 611.756 184.681 615.192" stroke="#FF6E40" stroke-linecap="round" stroke-linejoin="round"/>
<path d="M210.868 643.175L202.987 645.153L196.946 657.724L200.284 665.134C195.968 670.343 190.625 674.607 184.59 677.659L178.14 672.727L164.513 675.841L160.833 683.07C154.071 682.923 147.413 681.375 141.278 678.523L141.097 670.408L130.331 661.679L122.382 663.316C118.26 657.916 115.292 651.726 113.66 645.13L119.906 639.902V625.944L113.66 620.739C115.313 614.185 118.28 608.037 122.382 602.667L130.354 604.281L141.256 595.597L141.437 587.459C147.58 584.607 154.246 583.059 161.015 582.913L164.695 590.119L178.322 593.233L184.772 588.346C190.794 591.409 196.133 595.662 200.466 600.849L197.105 608.259L203.146 620.83L211.027 622.83C212.39 629.451 212.39 636.281 211.027 642.902L210.868 643.175Z" stroke="#FF6E40" stroke-linecap="round" stroke-linejoin="round"/>
<path d="M505.399 191.13V281.307H375.94V175.4H410.008C412.004 175.406 413.916 176.204 415.325 177.618C416.734 179.033 417.526 180.949 417.526 182.947V191.13H505.399Z" fill="#FEFEFE"/>
<path d="M498.563 188.857H369.103V279.034H498.563V188.857Z" stroke="#FF6E40" stroke-miterlimit="10"/>
<path d="M485.117 246.641H451.435V265.395H485.117V246.641Z" stroke="#FF6E40" stroke-miterlimit="10"/>
<path d="M369.103 173.127H403.172C405.165 173.127 407.078 173.919 408.487 175.33C409.897 176.741 410.689 178.655 410.689 180.651V188.834H369.103V173.104V173.127Z" stroke="#FF6E40" stroke-miterlimit="10"/>
<path d="M487.956 199.837V216.885" stroke="#FF6E40" stroke-linecap="round" stroke-linejoin="round"/>
<path d="M487.956 221.818V228.342" stroke="#FF6E40" stroke-linecap="round" stroke-linejoin="round"/>
<path d="M1406.75 907.683V997.86H1277.29V891.952H1311.36C1313.36 891.958 1315.27 892.756 1316.68 894.171C1318.09 895.585 1318.88 897.501 1318.88 899.499V907.683H1406.75Z" fill="#FEFEFE"/>
<path d="M1399.82 905.409H1270.36V995.586H1399.82V905.409Z" stroke="#FF6E40" stroke-miterlimit="10"/>
<path d="M1270.36 889.702H1304.43C1306.43 889.702 1308.34 890.494 1309.75 891.905C1311.16 893.317 1311.95 895.23 1311.95 897.226V905.409H1270.36V889.679V889.702Z" stroke="#FF6E40" stroke-miterlimit="10"/>
<path d="M616.938 400.786C580.053 367.62 560.158 318.701 557.228 269.691C554.502 223.364 561.18 171.149 595.838 136.824C603.492 129.232 613.849 123.685 624.637 124.231C662.589 126.095 644.51 185.879 609.284 167.285C598.269 161.488 591.114 150.508 584.778 139.734C551.345 82.1766 521.751 5.8432 541.42 -60.9429" stroke="#FF6E40" stroke-width="2" stroke-miterlimit="10" stroke-dasharray="9 5"/>
<path d="M419.456 391.898C427.723 377.827 436.104 360.187 427.905 346.07C421.546 335.159 407.828 331.363 395.381 329.067C383.321 326.794 371.148 325.157 359.042 323.952C351.252 323.179 343.144 322.566 336.148 319.247C323.816 313.427 316.548 300.561 311.165 288.059C301.246 265.435 294.549 241.531 291.269 217.045C286.727 183.424 290.792 144.826 316.729 123.003C347.232 97.3615 392.452 106.022 431.834 100.158C442.577 98.5436 453.774 95.3838 461.088 87.3595C467.538 80.2444 469.991 70.4016 471.263 60.8769C476.085 23.5499 466.714 -14.2277 445.007 -44.9624" stroke="#FF6E40" stroke-width="2" stroke-miterlimit="10" stroke-dasharray="9 5"/>
<path d="M361.995 434.361C361.745 421.267 350.775 410.833 339.283 404.468C318.97 393.291 295.318 389.798 272.645 394.625C261.811 396.899 251.477 401.195 240.848 404.127C222.751 409.022 203.863 410.268 185.28 407.794C166.698 405.32 148.792 399.175 132.602 389.715C123.018 384.032 113.524 376.395 110.663 365.597C107.801 354.799 115.205 341.069 126.288 341.342C134.942 341.547 141.233 349.321 146.093 356.482C154.065 368.257 161.992 381.486 160.334 395.717C158.063 415.561 138.757 428.337 121.065 437.543C70.1895 463.98 16.0439 484.734 -40.3049 495.327C-40.3049 495.327 -211.145 542.746 -272.468 492.418" stroke="#FF6E40" stroke-width="2" stroke-miterlimit="10" stroke-dasharray="9 5"/>
<path d="M355.953 649.313C291.45 661.875 231.995 692.956 184.84 738.762C158.108 764.677 88.0413 850.671 154.928 874.835C166.58 879.04 180.934 876.244 188.769 866.652C199.626 853.376 193.948 831.508 179.821 821.779C142.914 796.319 97.1942 841.056 73.937 866.924C25.0606 921.299 -17.1612 981.925 -73.2374 1029.53L-312.555 1275.44" stroke="#FF6E40" stroke-width="2" stroke-miterlimit="10" stroke-dasharray="9 5"/>
<path d="M801.383 484.371C827.411 484.371 848.51 463.253 848.51 437.202C848.51 411.152 827.411 390.034 801.383 390.034C775.355 390.034 754.255 411.152 754.255 437.202C754.255 463.253 775.355 484.371 801.383 484.371Z" fill="white" stroke="#FF6E40" stroke-linecap="round" stroke-linejoin="round"/>
<path d="M801.383 474.278C821.841 474.278 838.426 457.678 838.426 437.202C838.426 416.726 821.841 400.127 801.383 400.127C780.924 400.127 764.339 416.726 764.339 437.202C764.339 457.678 780.924 474.278 801.383 474.278Z" fill="white" stroke="#FF6E40" stroke-linecap="round" stroke-linejoin="round"/>
<path d="M801.383 463.344C815.808 463.344 827.502 451.64 827.502 437.202C827.502 422.765 815.808 411.061 801.383 411.061C786.958 411.061 775.264 422.765 775.264 437.202C775.264 451.64 786.958 463.344 801.383 463.344Z" fill="white" stroke="#FF6E40" stroke-linecap="round" stroke-linejoin="round"/>
<path d="M813.829 433.133L898.023 405.559" stroke="#FF6E40" stroke-linecap="round" stroke-linejoin="round"/>
<path d="M817.94 436.293L801.383 437.202L815.26 428.155L817.94 436.293Z" fill="#FF6E40"/>
<path d="M896.797 404.787L899.068 393.989L901.521 393.193L899.25 403.991L901.702 403.173L903.974 392.375L906.427 391.579L904.155 402.377L906.608 401.581L908.902 390.761L911.355 389.965L909.084 400.763L911.582 399.945L912.286 402.082L909.765 402.9L917.987 410.288L915.534 411.083L907.312 403.718L904.859 404.514L913.081 411.879L910.606 412.697L902.406 405.332L899.954 406.128L908.153 413.493L905.7 414.289L897.501 406.923L896.797 404.787Z" fill="#FF6E40"/>
<path d="M844.422 684.843C882.742 693.428 919.914 706.514 955.167 723.828C996.185 743.991 1036.38 772.178 1054.3 814.232C1072.22 856.286 1058.64 914.07 1016.4 931.483C1003.45 936.802 987.895 937.78 975.971 930.46C957.801 919.321 954.939 891.634 966.886 873.949C978.832 856.263 1001.32 848.103 1022.62 848.421C1063.68 849.057 1099.18 876.131 1129.78 903.568C1169.43 939.202 1206.49 977.634 1240.66 1018.57C1240.66 1018.57 1331.8 1129.95 1395.4 1214.06" stroke="#FF6E40" stroke-width="2" stroke-miterlimit="10" stroke-dasharray="9 5"/>
<path d="M867.112 506.625C921.409 516.294 976.077 523.371 1031.12 527.857C1059.71 530.13 1089.35 531.698 1116.22 521.651C1143.09 511.603 1166.57 487.008 1166.39 458.297C1166.62 454.52 1165.67 450.764 1163.69 447.545C1161.47 444.798 1158.39 442.883 1154.94 442.112C1133.5 436.316 1113.65 461.025 1115.76 483.143C1117.88 505.261 1134.07 523.242 1150.38 538.313C1169.59 556.085 1190.14 572.356 1211.84 586.982C1211.84 586.982 1478.29 709.029 1486.24 457.411" stroke="#FF6E40" stroke-width="2" stroke-miterlimit="10" stroke-dasharray="9 5"/>
<path d="M536.878 857.173C533.448 917.094 498.54 971.264 450.572 1005.72C426.754 1022.92 399.719 1035.14 371.079 1041.64C358.224 1044.51 339.691 1049.26 326.564 1046.37C315.026 1043.82 301.24 1030.46 312.482 1017.55C326.904 998.223 355.635 1004.75 370.512 1020.41C383.344 1033.94 388.273 1053.48 387.409 1072.1C386.546 1090.72 380.596 1108.68 373.782 1126.04C350.888 1185.87 319.528 1242.1 280.663 1293.01" stroke="#FF6E40" stroke-width="2" stroke-miterlimit="10" stroke-dasharray="9 5"/>
<path d="M702.063 861.946C707.923 907.41 714.146 953.851 735.813 994.132C763.999 1046.53 835.224 1092.99 891.709 1051.69C898.909 1046.41 911.128 1025.5 891.391 1031.96C887.218 1033.66 883.644 1036.56 881.125 1040.3C834.929 1099.95 906.835 1189.06 953.554 1224.77" stroke="#FF6E40" stroke-width="2" stroke-miterlimit="10" stroke-dasharray="9 5"/>
<path d="M1126.23 288.218H1064.3C1057.99 288.218 1052.87 293.337 1052.87 299.652V395.171C1052.87 401.486 1057.99 406.605 1064.3 406.605H1126.23C1132.54 406.605 1137.66 401.486 1137.66 395.171V299.652C1137.66 293.337 1132.54 288.218 1126.23 288.218Z" fill="#FEFEFE" stroke="#FF6E40" stroke-miterlimit="10"/>
<path d="M1124.03 385.556V299.561H1066.5V385.556H1124.03Z" fill="#FEFEFE" stroke="#FF6E40" stroke-miterlimit="10"/>
<path d="M1095.28 400.786C1097.95 400.786 1100.12 398.618 1100.12 395.944C1100.12 393.27 1097.95 391.102 1095.28 391.102C1092.61 391.102 1090.44 393.27 1090.44 395.944C1090.44 398.618 1092.61 400.786 1095.28 400.786Z" fill="#FEFEFE" stroke="#FF6E40" stroke-miterlimit="10"/>
<path d="M1115.11 307.722V344.661" stroke="#FF6E40" stroke-miterlimit="10"/>
<path d="M1115.11 350.639V360.3" stroke="#FF6E40" stroke-miterlimit="10"/>
<path d="M1115.11 365.688V370.803" stroke="#FF6E40" stroke-miterlimit="10"/>
<path d="M75.7767 688.07H13.8408C7.5314 688.07 2.41663 693.19 2.41663 699.505V795.024C2.41663 801.339 7.5314 806.458 13.8408 806.458H75.7767C82.0861 806.458 87.2009 801.339 87.2009 795.024V699.505C87.2009 693.19 82.0861 688.07 75.7767 688.07Z" fill="#FEFEFE" stroke="#FF6E40" stroke-miterlimit="10"/>
<path d="M73.5964 785.454V699.459H16.0666L16.0666 785.454H73.5964Z" fill="#FEFEFE" stroke="#FF6E40" stroke-miterlimit="10"/>
<path d="M44.8202 800.638C47.4794 800.638 49.6351 798.481 49.6351 795.819C49.6351 793.158 47.4794 791 44.8202 791C42.1609 791 40.0052 793.158 40.0052 795.819C40.0052 798.481 42.1609 800.638 44.8202 800.638Z" fill="#FEFEFE" stroke="#FF6E40" stroke-miterlimit="10"/>
<path d="M64.6477 707.597V744.536" stroke="#FF6E40" stroke-miterlimit="10"/>
<path d="M64.6477 750.492V760.153" stroke="#FF6E40" stroke-miterlimit="10"/>
<path d="M64.6477 765.563V770.678" stroke="#FF6E40" stroke-miterlimit="10"/>
<path d="M286.227 917.662H258.972V963.876H286.227V917.662Z" fill="#FEFEFE"/>
<path d="M328.608 882.791H299.854V963.876H328.608V882.791Z" fill="#FEFEFE"/>
<path d="M372.533 862.719H343.78V963.876H372.533V862.719Z" fill="#FEFEFE"/>
<path d="M281.685 917.662H254.43V963.876H281.685V917.662Z" stroke="#FF6E40" stroke-miterlimit="10"/>
<path d="M324.065 882.791H295.312V963.876H324.065V882.791Z" stroke="#FF6E40" stroke-miterlimit="10"/>
<path d="M367.99 862.719H339.237V963.876H367.99V862.719Z" stroke="#FF6E40" stroke-miterlimit="10"/>
<path d="M261.63 880.359L330.334 846.511" stroke="#FF6E40" stroke-linecap="round" stroke-linejoin="round"/>
<path d="M261.97 878.95L252.795 872.812L250.478 873.949L259.654 880.086L257.337 881.223L248.162 875.085L245.845 876.222L255.021 882.359L252.681 883.496L243.528 877.381L241.212 878.518L250.365 884.655L248.003 885.815L249.002 887.838L251.364 886.678L250.637 897.681L252.954 896.544L253.681 885.519L255.997 884.383L255.27 895.407L257.587 894.248L258.314 883.246L260.63 882.109L259.904 893.112L262.22 891.975L262.97 880.95L261.97 878.95Z" fill="#FF6E40"/>
<path d="M344.711 839.419L328.517 857.695L329.266 847.034L320.363 841.124L344.711 839.419Z" fill="#FF6E40"/>
<path d="M1229.96 304.221H1202.71V350.435H1229.96V304.221Z" fill="#FEFEFE"/>
<path d="M1272.34 269.373H1243.59V350.458H1272.34V269.373Z" fill="#FEFEFE"/>
<path d="M1316.27 249.278H1287.51V350.435H1316.27V249.278Z" fill="#FEFEFE"/>
<path d="M1225.42 304.221H1198.16V350.435H1225.42V304.221Z" stroke="#FF6E40" stroke-miterlimit="10"/>
<path d="M1267.8 269.373H1239.05V350.458H1267.8V269.373Z" stroke="#FF6E40" stroke-miterlimit="10"/>
<path d="M1311.72 249.278H1282.97V350.435H1311.72V249.278Z" stroke="#FF6E40" stroke-miterlimit="10"/>
<path d="M1205.36 266.918L1274.07 233.07" stroke="#FF6E40" stroke-linecap="round" stroke-linejoin="round"/>
<path d="M1205.7 265.509L1196.53 259.371L1194.21 260.508L1203.39 266.645L1201.07 267.782L1191.89 261.644L1189.58 262.804L1198.75 268.941L1196.44 270.078L1187.26 263.94L1184.94 265.077L1194.12 271.214L1191.74 272.374L1192.74 274.42L1195.1 273.238L1194.37 284.263L1196.69 283.103L1197.41 272.101L1199.73 270.942L1199 281.967L1201.32 280.83L1202.07 269.805L1204.39 268.668L1203.64 279.693L1205.98 278.534L1206.7 267.532L1205.7 265.509Z" fill="#FF6E40"/>
<path d="M1288.44 225.978L1272.25 244.254L1273 233.593L1264.1 227.683L1288.44 225.978Z" fill="#FF6E40"/>
<path d="M42.5943 134.21H13.8408V235.366H42.5943V134.21Z" fill="#FEFEFE"/>
<path d="M38.0518 134.21H9.29834V235.366H38.0518V134.21Z" stroke="#FF6E40" stroke-miterlimit="10"/>
<path d="M-68.2861 151.85L0.395295 118.002" stroke="#FF6E40" stroke-linecap="round" stroke-linejoin="round"/>
<path d="M14.7947 110.91L-1.39898 129.186L-0.672216 118.525L-9.55261 112.615L14.7947 110.91Z" fill="#FF6E40"/>
<path d="M160.743 976.946C152.37 981.904 145.654 989.234 141.443 998.011C137.232 1006.79 135.716 1016.62 137.086 1026.26C138.456 1035.9 142.65 1044.91 149.139 1052.17C155.628 1059.42 164.12 1064.59 173.542 1067.01C182.963 1069.43 192.892 1069.01 202.071 1065.79C211.251 1062.56 219.27 1056.69 225.115 1048.91C230.96 1041.12 234.368 1031.78 234.909 1022.06C235.449 1012.34 233.098 1002.68 228.152 994.291C224.866 988.72 220.515 983.852 215.348 979.965C210.181 976.078 204.299 973.248 198.039 971.637C191.778 970.026 185.262 969.666 178.863 970.577C172.463 971.488 166.306 973.653 160.743 976.946ZM203.441 1049.32C197.514 1052.82 190.685 1054.48 183.817 1054.09C176.949 1053.7 170.35 1051.28 164.854 1047.14C159.358 1043 155.212 1037.32 152.94 1030.82C150.667 1024.32 150.37 1017.3 152.086 1010.63C153.802 1003.96 157.455 997.955 162.582 993.364C167.708 988.773 174.08 985.807 180.891 984.839C187.701 983.871 194.646 984.946 200.847 987.927C207.047 990.908 212.226 995.662 215.729 1001.59C218.055 1005.53 219.582 1009.89 220.224 1014.42C220.865 1018.96 220.608 1023.57 219.467 1028C218.326 1032.44 216.323 1036.6 213.573 1040.26C210.824 1043.92 207.381 1047 203.441 1049.32Z" fill="#FEFEFE" stroke="#FF6E40" stroke-miterlimit="10"/>
<path d="M208.211 1006.09C211.487 1011.6 212.604 1018.14 211.345 1024.43" stroke="#FF6E40" stroke-linecap="round" stroke-linejoin="round"/>
<path d="M172.508 996.882C176.182 994.704 180.336 993.465 184.602 993.275C188.868 993.085 193.115 993.949 196.969 995.791" stroke="#FF6E40" stroke-linecap="round" stroke-linejoin="round"/>
<path d="M661.113 920.696C666.517 897.58 652.175 874.456 629.079 869.047C605.983 863.638 582.879 877.992 577.475 901.108C572.071 924.224 586.412 947.349 609.508 952.758C632.604 958.167 655.709 943.812 661.113 920.696Z" fill="#FEFEFE" stroke="#FF6E40" stroke-miterlimit="10"/>
<path d="M652.196 918.734C656.432 900.656 645.225 882.565 627.163 878.325C609.101 874.085 591.025 885.302 586.789 903.379C582.552 921.457 593.76 939.549 611.822 943.789C629.884 948.029 647.96 936.811 652.196 918.734Z" fill="#FEFEFE" stroke="#FF6E40" stroke-miterlimit="10"/>
<path d="M1308.66 508.868C1314.11 485.762 1299.81 462.61 1276.73 457.157C1253.64 451.704 1230.51 466.014 1225.06 489.119C1219.61 512.225 1233.91 535.376 1257 540.83C1280.08 546.283 1303.21 531.973 1308.66 508.868Z" fill="#FEFEFE" stroke="#FF6E40" stroke-miterlimit="10"/>
<path d="M1299.56 506.716C1303.82 488.645 1292.64 470.537 1274.58 466.272C1256.52 462.007 1238.43 473.199 1234.17 491.271C1229.91 509.342 1241.09 527.449 1259.15 531.715C1277.2 535.98 1295.29 524.788 1299.56 506.716Z" fill="#FEFEFE" stroke="#FF6E40" stroke-miterlimit="10"/>
<path d="M1262.68 482.252C1262.68 481.671 1262.52 481.211 1262.19 480.871C1261.87 480.524 1261.33 480.205 1260.55 479.915C1259.78 479.624 1259.12 479.337 1258.56 479.054C1258 478.764 1257.52 478.434 1257.11 478.066C1256.71 477.691 1256.4 477.251 1256.18 476.749C1255.96 476.246 1255.85 475.647 1255.85 474.953C1255.85 473.756 1256.23 472.775 1256.99 472.01C1257.76 471.245 1258.78 470.799 1260.04 470.671V468.397H1261.74V470.703C1263 470.88 1263.98 471.404 1264.69 472.275C1265.4 473.14 1265.75 474.262 1265.75 475.644H1262.68C1262.68 474.794 1262.5 474.16 1262.15 473.742C1261.8 473.317 1261.33 473.104 1260.75 473.104C1260.16 473.104 1259.71 473.271 1259.4 473.604C1259.08 473.929 1258.92 474.383 1258.92 474.964C1258.92 475.502 1259.07 475.934 1259.39 476.26C1259.7 476.586 1260.27 476.919 1261.12 477.259C1261.97 477.599 1262.66 477.921 1263.21 478.225C1263.76 478.523 1264.22 478.863 1264.59 479.245C1264.97 479.621 1265.25 480.053 1265.45 480.542C1265.65 481.023 1265.75 481.586 1265.75 482.231C1265.75 483.435 1265.37 484.413 1264.62 485.164C1263.87 485.914 1262.84 486.357 1261.52 486.492V488.606H1259.83V486.502C1258.38 486.346 1257.25 485.833 1256.45 484.962C1255.66 484.083 1255.26 482.918 1255.26 481.466H1258.33C1258.33 482.309 1258.53 482.957 1258.93 483.41C1259.33 483.857 1259.91 484.08 1260.66 484.08C1261.28 484.08 1261.78 483.917 1262.14 483.591C1262.5 483.258 1262.68 482.812 1262.68 482.252Z" fill="#FF6E40"/>
<path d="M186.903 96V133.03C186.903 158.035 176.342 172.788 161.534 178.062V195.838H145.635V178.062C130.827 172.788 120.266 157.944 120.266 133.03V96H186.903Z" fill="#FEFEFE"/>
<path d="M178.367 195.518H136.736V212.566H178.367V195.518Z" fill="#FEFEFE"/>
<path d="M186.362 95.6566V132.687C186.362 157.692 175.801 172.445 160.993 177.718V195.495H145.094V177.718C130.286 172.445 119.725 157.601 119.725 132.687V95.6566H186.362Z" stroke="#FF6E40" stroke-miterlimit="10"/>
<path d="M173.825 195.518H132.193V212.566H173.825V195.518Z" stroke="#FF6E40" stroke-miterlimit="10"/>
<path d="M186.362 111.41H211.05C211.05 111.41 204.373 145.076 185.385 145.076" stroke="#FF6E40" stroke-miterlimit="10"/>
<path d="M119.52 111.41H94.8322C94.8322 111.41 101.487 145.076 120.497 145.076" stroke="#FF6E40" stroke-miterlimit="10"/>
<path d="M152.93 150.69C163.981 150.69 172.939 141.724 172.939 130.664C172.939 119.603 163.981 110.637 152.93 110.637C141.879 110.637 132.92 119.603 132.92 130.664C132.92 141.724 141.879 150.69 152.93 150.69Z" fill="#FEFEFE" stroke="#FF6E40" stroke-miterlimit="10"/>
<path d="M148.366 127.365H147.276V120.141L145.091 120.943V119.959L148.196 118.793H148.366V127.365Z" fill="#FF6E40"/>
<path d="M1341.66 401.809H1316.97C1316.97 401.809 1323.63 435.475 1342.64 435.475" stroke="#FF6E40" stroke-miterlimit="10"/>
<path d="M296.13 70.2652C296.134 71.9161 295.649 73.5313 294.736 74.9062C293.823 76.2812 292.522 77.354 291 77.9889C289.477 78.6238 287.8 78.7923 286.182 78.4729C284.564 78.1536 283.076 77.3609 281.908 76.195C280.74 75.0292 279.944 73.5428 279.621 71.9238C279.297 70.3049 279.461 68.6263 280.091 67.1006C280.721 65.5749 281.79 64.2706 283.161 63.3529C284.532 62.4352 286.145 61.9453 287.794 61.9453C290.001 61.9453 292.118 62.8211 293.68 64.3808C295.243 65.9404 296.124 68.0565 296.13 70.2652Z" fill="#FEFEFE"/>
<path d="M291.587 70.2652C291.592 71.9161 291.107 73.5313 290.193 74.9062C289.28 76.2812 287.98 77.354 286.457 77.9889C284.935 78.6238 283.258 78.7923 281.64 78.4729C280.021 78.1536 278.534 77.3609 277.366 76.195C276.198 75.0292 275.402 73.5428 275.078 71.9238C274.755 70.3049 274.919 68.6263 275.549 67.1006C276.179 65.5749 277.247 64.2706 278.619 63.3529C279.99 62.4352 281.602 61.9453 283.252 61.9453C285.459 61.9453 287.575 62.8211 289.138 64.3808C290.7 65.9404 291.581 68.0565 291.587 70.2652V70.2652Z" stroke="#FF6E40" stroke-miterlimit="10"/>
<path d="M289.997 568.479C289.997 570.129 289.508 571.741 288.592 573.113C287.676 574.485 286.375 575.555 284.852 576.186C283.328 576.817 281.653 576.983 280.036 576.661C278.419 576.339 276.934 575.544 275.768 574.378C274.602 573.211 273.808 571.724 273.487 570.106C273.165 568.488 273.33 566.81 273.961 565.286C274.592 563.762 275.66 562.459 277.031 561.542C278.402 560.625 280.013 560.136 281.662 560.136C282.757 560.133 283.843 560.347 284.855 560.765C285.868 561.183 286.788 561.797 287.562 562.573C288.337 563.348 288.951 564.269 289.369 565.282C289.786 566.296 290 567.382 289.997 568.479Z" fill="#FEFEFE"/>
<path d="M285.455 568.479C285.455 570.129 284.966 571.741 284.05 573.113C283.134 574.485 281.832 575.555 280.309 576.186C278.786 576.817 277.11 576.983 275.493 576.661C273.876 576.339 272.391 575.544 271.225 574.378C270.06 573.211 269.266 571.724 268.944 570.106C268.623 568.488 268.788 566.81 269.419 565.286C270.049 563.762 271.118 562.459 272.489 561.542C273.859 560.625 275.471 560.136 277.119 560.136C278.215 560.133 279.3 560.347 280.313 560.765C281.325 561.183 282.246 561.797 283.02 562.573C283.795 563.348 284.409 564.269 284.826 565.282C285.244 566.296 285.458 567.382 285.455 568.479V568.479Z" stroke="#FF6E40" stroke-miterlimit="10"/>
<path d="M118.248 265.395C118.248 267.044 117.76 268.656 116.845 270.028C115.93 271.399 114.63 272.468 113.108 273.101C111.586 273.733 109.911 273.899 108.295 273.579C106.679 273.259 105.194 272.467 104.027 271.302C102.861 270.138 102.065 268.653 101.741 267.037C101.417 265.42 101.578 263.743 102.206 262.218C102.833 260.694 103.898 259.389 105.266 258.47C106.633 257.55 108.243 257.057 109.89 257.053C110.988 257.047 112.075 257.258 113.091 257.675C114.106 258.092 115.029 258.706 115.806 259.481C116.583 260.257 117.199 261.179 117.618 262.194C118.037 263.209 118.251 264.297 118.248 265.395Z" fill="#FEFEFE"/>
<path d="M113.706 265.395C113.706 267.044 113.218 268.656 112.303 270.028C111.388 271.399 110.087 272.468 108.566 273.101C107.044 273.733 105.369 273.899 103.753 273.579C102.136 273.259 100.651 272.467 99.4847 271.302C98.3181 270.138 97.5224 268.653 97.1982 267.037C96.874 265.42 97.0359 263.743 97.6633 262.218C98.2907 260.694 99.3555 259.389 100.723 258.47C102.091 257.55 103.7 257.057 105.348 257.053C106.445 257.047 107.533 257.258 108.548 257.675C109.563 258.092 110.486 258.706 111.263 259.481C112.04 260.257 112.656 261.179 113.076 262.194C113.495 263.209 113.709 264.297 113.706 265.395V265.395Z" stroke="#FF6E40" stroke-miterlimit="10"/>
<path d="M84.2029 65.6961C84.2073 67.3451 83.7234 68.9585 82.8122 70.3324C81.901 71.7063 80.6036 72.7791 79.0835 73.4154C77.5635 74.0516 75.8892 74.2227 74.272 73.907C72.6549 73.5914 71.1675 72.8031 69.9977 71.6418C68.828 70.4806 68.0282 68.9984 67.6996 67.3825C67.3711 65.7665 67.5284 64.0894 68.1517 62.5629C68.7749 61.0364 69.8362 59.729 71.2014 58.8059C72.5666 57.8827 74.1746 57.3852 75.8221 57.3763C76.9186 57.3703 78.0055 57.5809 79.0206 57.996C80.0356 58.4112 80.9589 59.0227 81.7375 59.7956C82.516 60.5685 83.1345 61.4875 83.5576 62.5C83.9807 63.5125 84.1999 64.5986 84.2029 65.6961Z" fill="#FEFEFE"/>
<path d="M79.6604 65.6961C79.6648 67.3451 79.1809 68.9585 78.2697 70.3324C77.3585 71.7063 76.0611 72.7791 74.541 73.4154C73.021 74.0516 71.3467 74.2227 69.7296 73.907C68.1125 73.5914 66.6251 72.8031 65.4553 71.6418C64.2855 70.4806 63.4858 68.9984 63.1572 67.3825C62.8286 65.7665 62.986 64.0894 63.6093 62.5629C64.2325 61.0364 65.2937 59.729 66.659 58.8059C68.0242 57.8827 69.6321 57.3852 71.2797 57.3763C72.3762 57.3703 73.4631 57.5809 74.4781 57.996C75.4932 58.4112 76.4164 59.0227 77.195 59.7956C77.9735 60.5685 78.592 61.4875 79.0151 62.5C79.4381 63.5125 79.6574 64.5986 79.6604 65.6961V65.6961Z" stroke="#FF6E40" stroke-miterlimit="10"/>
<path d="M139.007 515.718C143.611 515.718 147.343 511.983 147.343 507.375C147.343 502.768 143.611 499.033 139.007 499.033C134.404 499.033 130.672 502.768 130.672 507.375C130.672 511.983 134.404 515.718 139.007 515.718Z" fill="#FEFEFE"/>
<path d="M134.465 515.718C139.068 515.718 142.8 511.983 142.8 507.375C142.8 502.768 139.068 499.033 134.465 499.033C129.861 499.033 126.129 502.768 126.129 507.375C126.129 511.983 129.861 515.718 134.465 515.718Z" stroke="#FF6E40" stroke-miterlimit="10"/>
<path d="M1139.57 819.21C1139.57 820.86 1139.08 822.473 1138.16 823.845C1137.25 825.217 1135.94 826.287 1134.42 826.918C1132.9 827.549 1131.22 827.715 1129.6 827.393C1127.99 827.071 1126.5 826.276 1125.34 825.11C1124.17 823.943 1123.38 822.456 1123.06 820.838C1122.73 819.22 1122.9 817.542 1123.53 816.018C1124.16 814.493 1125.23 813.191 1126.6 812.274C1127.97 811.357 1129.58 810.868 1131.23 810.868C1132.33 810.865 1133.41 811.079 1134.42 811.497C1135.44 811.915 1136.36 812.529 1137.13 813.305C1137.91 814.08 1138.52 815.001 1138.94 816.014C1139.36 817.028 1139.57 818.114 1139.57 819.21Z" fill="#FEFEFE"/>
<path d="M1135.02 819.21C1135.02 820.86 1134.53 822.473 1133.62 823.845C1132.7 825.217 1131.4 826.287 1129.88 826.918C1128.36 827.549 1126.68 827.715 1125.06 827.393C1123.45 827.071 1121.96 826.276 1120.79 825.11C1119.63 823.943 1118.83 822.456 1118.51 820.838C1118.19 819.22 1118.36 817.542 1118.99 816.018C1119.62 814.493 1120.69 813.191 1122.06 812.274C1123.43 811.357 1125.04 810.868 1126.69 810.868C1127.78 810.865 1128.87 811.079 1129.88 811.497C1130.89 811.915 1131.81 812.529 1132.59 813.305C1133.36 814.08 1133.98 815.001 1134.4 816.014C1134.81 817.028 1135.03 818.114 1135.02 819.21V819.21Z" stroke="#FF6E40" stroke-miterlimit="10"/>
<path d="M1249.65 406.446C1249.65 408.097 1249.16 409.711 1248.25 411.083C1247.33 412.456 1246.03 413.525 1244.5 414.156C1242.98 414.786 1241.3 414.95 1239.68 414.627C1238.06 414.303 1236.58 413.506 1235.41 412.337C1234.25 411.168 1233.46 409.679 1233.14 408.06C1232.82 406.44 1232.99 404.762 1233.62 403.238C1234.26 401.714 1235.33 400.412 1236.7 399.498C1238.08 398.584 1239.69 398.099 1241.34 398.103C1242.43 398.103 1243.52 398.319 1244.53 398.739C1245.54 399.158 1246.45 399.773 1247.22 400.548C1248 401.323 1248.61 402.243 1249.03 403.255C1249.44 404.267 1249.65 405.352 1249.65 406.446Z" fill="#FEFEFE"/>
<path d="M1245.11 406.446C1245.11 408.097 1244.62 409.711 1243.7 411.083C1242.79 412.456 1241.48 413.525 1239.96 414.156C1238.43 414.786 1236.76 414.95 1235.14 414.627C1233.52 414.303 1232.04 413.506 1230.87 412.337C1229.71 411.168 1228.91 409.679 1228.6 408.06C1228.28 406.44 1228.45 404.762 1229.08 403.238C1229.71 401.714 1230.79 400.412 1232.16 399.498C1233.53 398.584 1235.15 398.099 1236.8 398.103C1237.89 398.103 1238.97 398.319 1239.98 398.739C1240.99 399.158 1241.91 399.773 1242.68 400.548C1243.45 401.323 1244.07 402.243 1244.48 403.255C1244.9 404.267 1245.11 405.352 1245.11 406.446V406.446Z" stroke="#FF6E40" stroke-miterlimit="10"/>
<path d="M1260.26 187.561C1260.26 189.211 1259.77 190.824 1258.85 192.196C1257.94 193.568 1256.64 194.637 1255.11 195.269C1253.59 195.9 1251.91 196.066 1250.3 195.744C1248.68 195.422 1247.19 194.627 1246.03 193.46C1244.86 192.294 1244.07 190.807 1243.75 189.189C1243.43 187.571 1243.59 185.893 1244.22 184.369C1244.85 182.844 1245.92 181.541 1247.29 180.625C1248.66 179.708 1250.27 179.219 1251.92 179.219C1254.13 179.219 1256.25 180.098 1257.82 181.662C1259.38 183.227 1260.26 185.349 1260.26 187.561Z" fill="#FEFEFE"/>
<path d="M1255.72 187.561C1255.72 189.211 1255.23 190.824 1254.31 192.196C1253.4 193.568 1252.09 194.637 1250.57 195.269C1249.05 195.9 1247.37 196.066 1245.75 195.744C1244.14 195.422 1242.65 194.627 1241.49 193.46C1240.32 192.294 1239.53 190.807 1239.2 189.189C1238.88 187.571 1239.05 185.893 1239.68 184.369C1240.31 182.844 1241.38 181.541 1242.75 180.625C1244.12 179.708 1245.73 179.219 1247.38 179.219C1249.59 179.219 1251.71 180.098 1253.27 181.662C1254.84 183.227 1255.72 185.349 1255.72 187.561V187.561Z" stroke="#FF6E40" stroke-miterlimit="10"/>
<path d="M1018.22 677.046C1018.22 678.696 1017.73 680.309 1016.81 681.681C1015.89 683.053 1014.59 684.122 1013.07 684.753C1011.55 685.385 1009.87 685.55 1008.25 685.228C1006.64 684.906 1005.15 684.111 1003.99 682.945C1002.82 681.778 1002.03 680.292 1001.7 678.673C1001.38 677.055 1001.55 675.377 1002.18 673.853C1002.81 672.329 1003.88 671.026 1005.25 670.109C1006.62 669.192 1008.23 668.703 1009.88 668.703C1012.09 668.703 1014.21 669.582 1015.77 671.147C1017.34 672.711 1018.22 674.833 1018.22 677.046Z" fill="#FEFEFE"/>
<path d="M1013.67 677.046C1013.67 678.696 1013.18 680.309 1012.27 681.681C1011.35 683.053 1010.05 684.122 1008.53 684.753C1007 685.385 1005.33 685.55 1003.71 685.228C1002.09 684.906 1000.61 684.111 999.444 682.945C998.278 681.778 997.484 680.292 997.162 678.673C996.841 677.055 997.006 675.377 997.637 673.853C998.268 672.329 999.336 671.026 1000.71 670.109C1002.08 669.192 1003.69 668.703 1005.34 668.703C1007.55 668.703 1009.67 669.582 1011.23 671.147C1012.79 672.711 1013.67 674.833 1013.67 677.046V677.046Z" stroke="#FF6E40" stroke-miterlimit="10"/>
<path d="M879.831 173.127C879.835 174.778 879.35 176.393 878.437 177.768C877.524 179.143 876.224 180.215 874.701 180.85C873.178 181.485 871.502 181.654 869.883 181.334C868.265 181.015 866.777 180.222 865.609 179.057C864.441 177.891 863.645 176.404 863.322 174.785C862.998 173.166 863.162 171.488 863.792 169.962C864.423 168.436 865.491 167.132 866.862 166.214C868.233 165.297 869.846 164.807 871.495 164.807C873.702 164.807 875.819 165.683 877.381 167.242C878.944 168.802 879.825 170.918 879.831 173.127Z" fill="#FEFEFE"/>
<path d="M875.288 173.127C875.293 174.778 874.808 176.393 873.895 177.768C872.981 179.143 871.681 180.215 870.159 180.85C868.636 181.485 866.959 181.654 865.341 181.334C863.722 181.015 862.235 180.222 861.067 179.057C859.899 177.891 859.103 176.404 858.78 174.785C858.456 173.166 858.62 171.488 859.25 169.962C859.88 168.436 860.949 167.132 862.32 166.214C863.691 165.297 865.303 164.807 866.953 164.807C869.16 164.807 871.276 165.683 872.839 167.242C874.401 168.802 875.282 170.918 875.288 173.127V173.127Z" stroke="#FF6E40" stroke-miterlimit="10"/>
<path d="M643.102 257.666C643.107 259.317 642.622 260.932 641.709 262.307C640.796 263.682 639.495 264.755 637.973 265.39C636.45 266.025 634.773 266.193 633.155 265.874C631.537 265.555 630.049 264.762 628.881 263.596C627.713 262.43 626.917 260.944 626.594 259.325C626.27 257.706 626.434 256.027 627.064 254.502C627.694 252.976 628.763 251.672 630.134 250.754C631.505 249.836 633.117 249.346 634.767 249.346C636.974 249.346 639.09 250.222 640.653 251.782C642.215 253.341 643.096 255.458 643.102 257.666Z" fill="#FEFEFE"/>
<path d="M638.56 257.666C638.565 259.317 638.079 260.932 637.166 262.307C636.253 263.682 634.953 264.755 633.43 265.39C631.908 266.025 630.231 266.193 628.613 265.874C626.994 265.555 625.507 264.762 624.339 263.596C623.171 262.43 622.375 260.944 622.051 259.325C621.728 257.706 621.891 256.027 622.522 254.502C623.152 252.976 624.22 251.672 625.591 250.754C626.963 249.836 628.575 249.346 630.225 249.346C632.431 249.346 634.548 250.222 636.111 251.782C637.673 253.341 638.554 255.458 638.56 257.666V257.666Z" stroke="#FF6E40" stroke-miterlimit="10"/>
<path d="M524.749 128.231C524.754 129.883 524.268 131.499 523.354 132.875C522.44 134.25 521.138 135.323 519.614 135.957C518.09 136.591 516.413 136.759 514.794 136.437C513.175 136.116 511.687 135.321 510.52 134.153C509.353 132.985 508.559 131.496 508.238 129.876C507.917 128.256 508.084 126.576 508.718 125.051C509.352 123.526 510.423 122.223 511.797 121.308C513.172 120.393 514.786 119.907 516.437 119.911C518.642 119.911 520.756 120.788 522.315 122.348C523.874 123.909 524.749 126.025 524.749 128.231Z" fill="#FEFEFE"/>
<path d="M520.207 128.231C520.212 129.883 519.726 131.499 518.812 132.875C517.898 134.25 516.596 135.323 515.072 135.957C513.548 136.591 511.87 136.759 510.251 136.437C508.632 136.116 507.145 135.321 505.978 134.153C504.811 132.985 504.017 131.496 503.696 129.876C503.375 128.256 503.542 126.576 504.175 125.051C504.809 123.526 505.881 122.223 507.255 121.308C508.629 120.393 510.244 119.907 511.895 119.911C514.099 119.911 516.214 120.788 517.772 122.348C519.331 123.909 520.207 126.025 520.207 128.231V128.231Z" stroke="#FF6E40" stroke-miterlimit="10"/>
<path d="M518.708 377.236C518.713 378.887 518.228 380.502 517.314 381.877C516.401 383.252 515.101 384.324 513.578 384.959C512.056 385.594 510.379 385.763 508.761 385.443C507.142 385.124 505.655 384.331 504.487 383.166C503.319 382 502.523 380.513 502.199 378.894C501.876 377.275 502.04 375.597 502.67 374.071C503.3 372.545 504.368 371.241 505.74 370.323C507.111 369.406 508.723 368.916 510.373 368.916C512.58 368.916 514.696 369.792 516.259 371.351C517.821 372.911 518.702 375.027 518.708 377.236Z" fill="#FEFEFE"/>
<path d="M514.166 377.236C514.17 378.887 513.685 380.502 512.772 381.877C511.859 383.252 510.559 384.324 509.036 384.959C507.513 385.594 505.837 385.763 504.218 385.443C502.6 385.124 501.113 384.331 499.945 383.166C498.777 382 497.98 380.513 497.657 378.894C497.333 377.275 497.497 375.597 498.127 374.071C498.758 372.545 499.826 371.241 501.197 370.323C502.569 369.406 504.181 368.916 505.831 368.916C508.037 368.916 510.154 369.792 511.717 371.351C513.279 372.911 514.16 375.027 514.166 377.236V377.236Z" stroke="#FF6E40" stroke-miterlimit="10"/>
<path d="M458.203 900.045C458.208 901.697 457.722 903.313 456.808 904.688C455.894 906.064 454.592 907.136 453.068 907.771C451.544 908.405 449.866 908.572 448.247 908.251C446.628 907.93 445.141 907.135 443.974 905.966C442.807 904.798 442.012 903.31 441.692 901.689C441.371 900.069 441.538 898.39 442.171 896.864C442.805 895.339 443.877 894.036 445.251 893.121C446.625 892.206 448.24 891.72 449.891 891.725C452.095 891.725 454.21 892.601 455.768 894.162C457.327 895.722 458.203 897.838 458.203 900.045Z" fill="#FEFEFE"/>
<path d="M453.661 900.045C453.665 901.697 453.18 903.313 452.265 904.688C451.351 906.064 450.05 907.136 448.526 907.771C447.002 908.405 445.324 908.572 443.705 908.251C442.086 907.93 440.598 907.135 439.431 905.966C438.264 904.798 437.47 903.31 437.149 901.689C436.828 900.069 436.995 898.39 437.629 896.864C438.262 895.339 439.334 894.036 440.709 893.121C442.083 892.206 443.698 891.72 445.348 891.725C447.553 891.725 449.667 892.601 451.226 894.162C452.785 895.722 453.661 897.838 453.661 900.045V900.045Z" stroke="#FF6E40" stroke-miterlimit="10"/>
<path d="M1109.22 944.599C1109.23 946.25 1108.74 947.865 1107.83 949.24C1106.92 950.615 1105.62 951.688 1104.09 952.323C1102.57 952.958 1100.89 953.126 1099.28 952.807C1097.66 952.487 1096.17 951.695 1095 950.529C1093.83 949.363 1093.04 947.877 1092.71 946.258C1092.39 944.639 1092.55 942.96 1093.18 941.435C1093.81 939.909 1094.88 938.605 1096.25 937.687C1097.63 936.769 1099.24 936.279 1100.89 936.279C1103.09 936.279 1105.21 937.155 1106.77 938.715C1108.34 940.274 1109.22 942.39 1109.22 944.599Z" fill="#FEFEFE"/>
<path d="M1104.68 944.599C1104.68 946.25 1104.2 947.865 1103.29 949.24C1102.37 950.615 1101.07 951.688 1099.55 952.323C1098.03 952.958 1096.35 953.126 1094.73 952.807C1093.11 952.487 1091.63 951.695 1090.46 950.529C1089.29 949.363 1088.5 947.877 1088.17 946.258C1087.85 944.639 1088.01 942.96 1088.64 941.435C1089.27 939.909 1090.34 938.605 1091.71 937.687C1093.08 936.769 1094.7 936.279 1096.34 936.279C1098.55 936.279 1100.67 937.155 1102.23 938.715C1103.79 940.274 1104.67 942.39 1104.68 944.599V944.599Z" stroke="#FF6E40" stroke-miterlimit="10"/>
<path d="M274.871 925.073V944.963" stroke="#FF6E40" stroke-linecap="round" stroke-linejoin="round"/>
<path d="M274.871 950.373V956.329" stroke="#FF6E40" stroke-linecap="round" stroke-linejoin="round"/>
<path d="M318.751 888.088V912.002" stroke="#FF6E40" stroke-linecap="round" stroke-linejoin="round"/>
<path d="M318.751 917.662V927.732" stroke="#FF6E40" stroke-linecap="round" stroke-linejoin="round"/>
<path d="M318.751 933.029V937.87" stroke="#FF6E40" stroke-linecap="round" stroke-linejoin="round"/>
<path d="M361.904 868.538V912.002" stroke="#FF6E40" stroke-linecap="round" stroke-linejoin="round"/>
<path d="M361.904 917.662V923.345" stroke="#FF6E40" stroke-linecap="round" stroke-linejoin="round"/>
<path d="M361.904 929.914V935.461" stroke="#FF6E40" stroke-linecap="round" stroke-linejoin="round"/>
<path d="M1120.92 987.494H964.774V1081.83H1120.92V987.494Z" fill="#FEFEFE"/>
<path d="M1114.11 987.494H957.96V1081.83H1114.11V987.494Z" stroke="#FF6E40" stroke-linecap="round" stroke-linejoin="round"/>
<path d="M1105.02 1072.74V996.587H967.045V1072.74H1105.02Z" stroke="#FF6E40" stroke-linecap="round" stroke-linejoin="round"/>
<path d="M1090.39 1006.54V1032.96" stroke="#FF6E40" stroke-linecap="round" stroke-linejoin="round"/>
<path d="M1098.68 702.869C1111.05 702.869 1121.08 693.923 1121.08 682.888C1121.08 671.852 1111.05 662.906 1098.68 662.906C1086.32 662.906 1076.29 671.852 1076.29 682.888C1076.29 693.923 1086.32 702.869 1098.68 702.869Z" fill="#FEFEFE"/>
<path d="M1128.96 763.245H1068.34V737.467C1068.34 733.48 1069.12 729.532 1070.65 725.848C1072.17 722.165 1074.41 718.819 1077.22 716.002C1080.04 713.185 1083.39 710.952 1087.07 709.432C1090.75 707.912 1094.7 707.134 1098.68 707.143C1106.71 707.143 1114.41 710.335 1120.09 716.018C1125.77 721.7 1128.96 729.408 1128.96 737.444V763.245Z" fill="#FEFEFE"/>
<path d="M1091.87 702.869C1104.24 702.869 1114.26 693.923 1114.26 682.888C1114.26 671.852 1104.24 662.906 1091.87 662.906C1079.5 662.906 1069.48 671.852 1069.48 682.888C1069.48 693.923 1079.5 702.869 1091.87 702.869Z" stroke="#FF6E40" stroke-linecap="round" stroke-linejoin="round"/>
<path d="M1122.15 763.245H1061.53V737.467C1061.52 733.48 1062.31 729.532 1063.83 725.848C1065.36 722.165 1067.59 718.819 1070.41 716.002C1073.23 713.185 1076.58 710.952 1080.26 709.432C1083.94 707.912 1087.89 707.134 1091.87 707.143V707.143C1099.9 707.143 1107.6 710.335 1113.28 716.018C1118.96 721.7 1122.15 729.408 1122.15 737.444V763.245Z" stroke="#FF6E40" stroke-linecap="round" stroke-linejoin="round"/>
<path d="M1110.43 727.033V739.967" stroke="#FF6E40" stroke-linecap="round" stroke-linejoin="round"/>
<path d="M1110.43 744.218V750.333" stroke="#FF6E40" stroke-linecap="round" stroke-linejoin="round"/>
<path d="M839.562 963.876C870.181 963.876 895.002 939.033 895.002 908.387C895.002 877.742 870.181 852.899 839.562 852.899C808.943 852.899 784.122 877.742 784.122 908.387C784.122 939.033 808.943 963.876 839.562 963.876Z" fill="white"/>
<path d="M888.211 908.387C888.232 921.41 883.682 934.027 875.355 944.034C867.028 954.04 855.453 960.801 842.652 963.135C829.851 965.469 816.637 963.228 805.319 956.804C794.001 950.379 785.298 940.179 780.729 927.985C776.16 915.792 776.017 902.379 780.323 890.09C784.63 877.801 793.113 867.417 804.291 860.751C815.469 854.085 828.631 851.561 841.479 853.62C854.327 855.679 866.044 862.19 874.584 872.016C883.371 882.092 888.212 895.013 888.211 908.387V908.387Z" stroke="#FF6E40" stroke-miterlimit="10"/>
<path d="M832.748 963.876C848.478 963.876 861.229 939.033 861.229 908.387C861.229 877.742 848.478 852.899 832.748 852.899C817.019 852.899 804.267 877.742 804.267 908.387C804.267 939.033 817.019 963.876 832.748 963.876Z" stroke="#FF6E40" stroke-miterlimit="10"/>
<path d="M874.607 872.016C869.405 878.01 862.978 882.815 855.76 886.109C848.543 889.402 840.703 891.107 832.771 891.107C824.839 891.107 816.999 889.402 809.782 886.109C802.564 882.815 796.137 878.01 790.935 872.016C796.133 866.016 802.559 861.204 809.777 857.907C816.995 854.609 824.837 852.902 832.771 852.902C840.706 852.902 848.547 854.609 855.765 857.907C862.983 861.204 869.409 866.016 874.607 872.016Z" stroke="#FF6E40" stroke-miterlimit="10"/>
<path d="M875.493 943.781C870.288 950.068 863.762 955.129 856.38 958.603C848.997 962.077 840.94 963.878 832.782 963.878C824.625 963.878 816.568 962.077 809.185 958.603C801.803 955.129 795.277 950.068 790.072 943.781C795.277 937.493 801.803 932.433 809.185 928.959C816.568 925.485 824.625 923.684 832.782 923.684C840.94 923.684 848.997 925.485 856.38 928.959C863.762 932.433 870.288 937.493 875.493 943.781V943.781Z" stroke="#FF6E40" stroke-miterlimit="10"/>
<path d="M777.308 908.387H888.189" stroke="#FF6E40" stroke-miterlimit="10"/>
<path d="M1346.45 178.332C1377.07 178.332 1401.89 153.489 1401.89 122.844C1401.89 92.1984 1377.07 67.3555 1346.45 67.3555C1315.83 67.3555 1291.01 92.1984 1291.01 122.844C1291.01 153.489 1315.83 178.332 1346.45 178.332Z" fill="white"/>
<path d="M1395.1 122.935C1395.12 135.958 1390.57 148.574 1382.24 158.581C1373.92 168.588 1362.34 175.349 1349.54 177.683C1336.74 180.017 1323.53 177.776 1312.21 171.351C1300.89 164.927 1292.19 154.727 1287.62 142.533C1283.05 130.339 1282.91 116.926 1287.21 104.637C1291.52 92.3485 1300 81.9643 1311.18 75.2985C1322.36 68.6326 1335.52 66.1089 1348.37 68.1679C1361.22 70.227 1372.93 76.738 1381.47 86.5639C1390.26 96.6397 1395.1 109.561 1395.1 122.935Z" stroke="#FF6E40" stroke-miterlimit="10"/>
<path d="M1339.64 178.332C1355.37 178.332 1368.12 153.489 1368.12 122.844C1368.12 92.1984 1355.37 67.3555 1339.64 67.3555C1323.91 67.3555 1311.16 92.1984 1311.16 122.844C1311.16 153.489 1323.91 178.332 1339.64 178.332Z" stroke="#FF6E40" stroke-miterlimit="10"/>
<path d="M1381.5 86.5639C1376.29 92.5725 1369.86 97.3916 1362.64 100.694C1355.41 103.997 1347.56 105.706 1339.61 105.706C1331.67 105.706 1323.82 103.997 1316.59 100.694C1309.37 97.3916 1302.94 92.5725 1297.73 86.5639C1302.93 80.5639 1309.36 75.752 1316.57 72.4542C1323.79 69.1565 1331.63 67.4498 1339.57 67.4498C1347.5 67.4498 1355.35 69.1565 1362.56 72.4542C1369.78 75.752 1376.21 80.5639 1381.4 86.5639H1381.5Z" stroke="#FF6E40" stroke-miterlimit="10"/>
<path d="M1382.38 158.215C1377.18 164.502 1370.65 169.563 1363.27 173.037C1355.89 176.51 1347.83 178.312 1339.67 178.312C1331.51 178.312 1323.46 176.51 1316.07 173.037C1308.69 169.563 1302.17 164.502 1296.96 158.215C1302.17 151.927 1308.69 146.866 1316.07 143.392C1323.46 139.919 1331.51 138.118 1339.67 138.118C1347.83 138.118 1355.89 139.919 1363.27 143.392C1370.65 146.866 1377.18 151.927 1382.38 158.215V158.215Z" stroke="#FF6E40" stroke-miterlimit="10"/>
<path d="M1284.2 122.844H1395.08" stroke="#FF6E40" stroke-miterlimit="10"/>
<path d="M-42.3035 540.496H-10.6655L5.07403 582.39H64.8523" stroke="#FF6E40" stroke-linecap="round" stroke-linejoin="round"/>
<path d="M62.808 576.889H21.7218L8.48071 540.291H76.0492L62.808 576.889Z" fill="#FEFEFE"/>
<path d="M55.9945 576.889H14.9083L1.66711 540.291H69.2357L55.9945 576.889Z" stroke="#FF6E40" stroke-miterlimit="10"/>
<path d="M26.696 592.37C26.696 593.462 26.3722 594.53 25.7658 595.438C25.1593 596.347 24.2975 597.055 23.289 597.473C22.2805 597.891 21.1708 598 20.1002 597.787C19.0296 597.574 18.0462 597.048 17.2744 596.276C16.5025 595.503 15.9769 594.519 15.7639 593.447C15.551 592.376 15.6602 591.265 16.0779 590.256C16.4956 589.246 17.2031 588.384 18.1107 587.777C19.0183 587.17 20.0853 586.846 21.1769 586.846C22.6407 586.846 24.0444 587.428 25.0795 588.464C26.1145 589.5 26.696 590.905 26.696 592.37Z" fill="#FEFEFE" stroke="#FF6E40" stroke-miterlimit="10"/>
<path d="M53.7914 592.37C53.7914 593.462 53.4677 594.53 52.8612 595.438C52.2548 596.347 51.3929 597.055 50.3844 597.473C49.3759 597.891 48.2662 598 47.1956 597.787C46.125 597.574 45.1416 597.048 44.3698 596.276C43.5979 595.503 43.0723 594.519 42.8593 593.447C42.6464 592.376 42.7557 591.265 43.1735 590.256C43.5912 589.246 44.2985 588.384 45.2061 587.777C46.1137 587.17 47.1808 586.846 48.2723 586.846C49.7361 586.846 51.1399 587.428 52.1749 588.464C53.2099 589.5 53.7914 590.905 53.7914 592.37Z" fill="#FEFEFE" stroke="#FF6E40" stroke-miterlimit="10"/>
<path d="M56.4486 545.156L51.8153 561.432" stroke="#FF6E40" stroke-linecap="round" stroke-linejoin="round"/>
<path d="M50.4982 565.614L48.7039 570.638" stroke="#FF6E40" stroke-linecap="round" stroke-linejoin="round"/>
<path d="M591.114 475.284V565.461H461.655V459.554H495.723C497.719 459.56 499.631 460.358 501.041 461.772C502.45 463.187 503.241 465.103 503.241 467.101V475.284H591.114Z" fill="#FEFEFE"/>
<path d="M584.278 473.011H454.819V563.188H584.278V473.011Z" stroke="#FF6E40" stroke-miterlimit="10"/>
<path d="M570.832 530.795H537.15V549.549H570.832V530.795Z" stroke="#FF6E40" stroke-miterlimit="10"/>
<path d="M454.819 457.281H488.887C490.881 457.281 492.793 458.073 494.203 459.484C495.613 460.896 496.405 462.809 496.405 464.805V472.988H454.819V457.258V457.281Z" stroke="#FF6E40" stroke-miterlimit="10"/>
<path d="M573.671 483.99V501.039" stroke="#FF6E40" stroke-linecap="round" stroke-linejoin="round"/>
<path d="M573.671 505.972V512.496" stroke="#FF6E40" stroke-linecap="round" stroke-linejoin="round"/>
<path d="M558.424 779.448C554.844 779.459 551.312 780.274 548.09 781.835C544.811 776.174 540.104 771.475 534.44 768.207C528.776 764.94 522.353 763.219 515.816 763.218C513.19 763.223 510.573 763.497 508.003 764.036C502.113 758.73 495.106 754.819 487.501 752.592C479.896 750.366 471.888 749.88 464.07 751.173C456.252 752.465 448.824 755.502 442.339 760.059C435.853 764.615 430.475 770.574 426.603 777.493C424.38 776.902 422.089 776.604 419.789 776.607C412.715 776.607 405.931 779.418 400.927 784.422C395.923 789.426 393.109 796.214 393.103 803.294H582.181C582.181 796.981 579.68 790.926 575.226 786.456C570.773 781.986 564.731 779.466 558.424 779.448Z" fill="#FEFEFE"/>
<path d="M549.339 781.721C545.759 781.732 542.228 782.548 539.005 784.108C535.726 778.447 531.019 773.748 525.355 770.481C519.691 767.213 513.269 765.493 506.731 765.491C504.106 765.496 501.488 765.77 498.918 766.309C493.029 761.003 486.022 757.092 478.416 754.865C470.811 752.639 462.803 752.154 454.985 753.446C447.167 754.739 439.74 757.776 433.254 762.332C426.768 766.888 421.39 772.847 417.518 779.766C415.295 779.175 413.005 778.877 410.704 778.88C403.631 778.88 396.846 781.691 391.842 786.695C386.838 791.699 384.024 798.487 384.018 805.567H573.096C573.096 799.255 570.595 793.2 566.142 788.73C561.688 784.26 555.646 781.739 549.339 781.721V781.721Z" stroke="#FF6E40" stroke-linecap="round" stroke-linejoin="round"/>
<path d="M523.583 780.289C526.647 782.58 529.219 785.463 531.147 788.768L535.394 796.065L542.957 792.405C544.94 791.42 547.125 790.907 549.339 790.905C551.576 790.907 553.782 791.418 555.793 792.398C557.803 793.379 559.565 794.804 560.945 796.565" stroke="#FF6E40" stroke-linecap="round" stroke-linejoin="round"/>
<path d="M517.815 776.857C519.865 777.771 521.801 778.923 523.583 780.289" stroke="#FF6E40" stroke-linecap="round" stroke-linejoin="round"/>
<path d="M506.731 774.583C510.541 774.584 514.311 775.358 517.814 776.857" stroke="#FF6E40" stroke-linecap="round" stroke-linejoin="round"/>
<path d="M463.578 761.831C474.383 761.816 484.808 765.818 492.831 773.061L494.966 774.97" stroke="#FF6E40" stroke-linecap="round" stroke-linejoin="round"/>
<path d="M709.983 752.444C740.602 752.444 765.423 727.601 765.423 696.955C765.423 666.31 740.602 641.467 709.983 641.467C679.364 641.467 654.543 666.31 654.543 696.955C654.543 727.601 679.364 752.444 709.983 752.444Z" fill="white"/>
<path d="M758.632 696.955C758.654 709.978 754.103 722.595 745.776 732.602C737.449 742.608 725.874 749.369 713.073 751.703C700.272 754.037 687.058 751.796 675.74 745.372C664.422 738.947 655.719 728.747 651.15 716.553C646.581 704.36 646.438 690.947 650.744 678.658C655.051 666.369 663.534 655.985 674.712 649.319C685.89 642.653 699.052 640.129 711.9 642.188C724.748 644.248 736.465 650.759 745.005 660.584C753.792 670.66 758.633 683.581 758.632 696.955Z" stroke="#FF6E40" stroke-miterlimit="10"/>
<path d="M703.169 752.444C718.899 752.444 731.65 727.601 731.65 696.955C731.65 666.31 718.899 641.467 703.169 641.467C687.44 641.467 674.688 666.31 674.688 696.955C674.688 727.601 687.44 752.444 703.169 752.444Z" stroke="#FF6E40" stroke-miterlimit="10"/>
<path d="M745.028 660.585C739.826 666.578 733.399 671.384 726.181 674.677C718.964 677.97 711.124 679.675 703.192 679.675C695.26 679.675 687.42 677.97 680.203 674.677C672.985 671.384 666.558 666.578 661.356 660.585C666.554 654.585 672.98 649.773 680.198 646.475C687.416 643.177 695.258 641.47 703.192 641.47C711.127 641.47 718.968 643.177 726.186 646.475C733.404 649.773 739.83 654.585 745.028 660.585Z" stroke="#FF6E40" stroke-miterlimit="10"/>
<path d="M745.982 732.349C740.777 738.636 734.251 743.697 726.869 747.171C719.486 750.645 711.429 752.446 703.272 752.446C695.114 752.446 687.057 750.645 679.674 747.171C672.292 743.697 665.766 738.636 660.561 732.349C665.766 726.061 672.292 721 679.674 717.527C687.057 714.053 695.114 712.252 703.272 712.252C711.429 712.252 719.486 714.053 726.869 717.527C734.251 721 740.777 726.061 745.982 732.349Z" stroke="#FF6E40" stroke-miterlimit="10"/>
<path d="M647.729 696.955H758.61" stroke="#FF6E40" stroke-miterlimit="10"/>
<path d="M500.007 636.11L506.73 656.864H528.556L510.909 669.708L517.655 690.462L500.007 677.641L482.36 690.462L489.106 669.708L471.436 656.864H493.262L500.007 636.11Z" fill="#FEFEFE"/>
<path d="M493.194 633.837L499.917 654.591H521.743L504.096 667.435L510.841 688.189L493.194 675.368L475.547 688.189L482.292 667.435L464.622 654.591H486.448L493.194 633.837Z" stroke="#FF6E40" stroke-linecap="round" stroke-linejoin="round"/>
</g>
</g>
</g>
<defs>
<clipPath id="clip0">
<rect x="-314.19" y="-61.5793" width="1802.7" height="1355.95" fill="white"/>
</clipPath>
</defs>
</svg>
